<svg width="21" height="21" viewBox="0 0 21 21" fill="none" xmlns="http://www.w3.org/2000/svg">
<path d="M10.5 21C4.72271 21 0 16.2773 0 10.5C0 4.72271 4.72271 0 10.5 0C16.2773 0 21 4.72271 21 10.5C21.0459 16.2773 16.3231 21 10.5 21ZM10.5 1.10043C5.31878 1.10043 1.14629 5.31877 1.14629 10.4541C1.14629 15.5895 5.36463 19.8079 10.5 19.8079C15.6354 19.8079 19.8537 15.5895 19.8537 10.4541C19.8537 5.31877 15.6812 1.10043 10.5 1.10043Z" fill="#E52421"/>
<path d="M13.8007 15.8653L9.90332 11.968V4.86096H11.1413V11.4636L14.6719 14.9941L13.8007 15.8653Z" fill="#E52421"/>
</svg>
