<svg width="44" height="44" viewBox="0 0 44 44" fill="none" xmlns="http://www.w3.org/2000/svg">
<g opacity="0.5" clip-path="url(#clip0_30_394)">
<path d="M36.6663 20.1667C36.6663 12.0665 30.0999 5.5 21.9997 5.5C13.8995 5.5 7.33301 12.0665 7.33301 20.1667" stroke="white" stroke-width="1.5" stroke-linecap="round" stroke-linejoin="round"/>
<path d="M3.66699 28.3038V24.863C3.66699 23.1804 4.81207 21.7139 6.44436 21.3058L9.63354 20.5085C10.3278 20.3349 11.0003 20.86 11.0003 21.5757V31.5912C11.0003 32.3069 10.3278 32.832 9.63354 32.6584L6.44436 31.8611C4.81207 31.453 3.66699 29.9865 3.66699 28.3038Z" stroke="white" stroke-width="1.5"/>
<path d="M40.3333 28.3037V24.8629C40.3333 23.1803 39.1882 21.7138 37.556 21.3057L34.3668 20.5084C33.6725 20.3348 33 20.8598 33 21.5756V31.5911C33 32.3068 33.6725 32.8319 34.3668 32.6582L37.556 31.8609C39.1882 31.4528 40.3333 29.9863 40.3333 28.3037Z" stroke="white" stroke-width="1.5"/>
<path d="M36.6663 33V33.9167C36.6663 35.9418 35.0248 37.5833 32.9997 37.5833H26.583" stroke="white" stroke-width="1.5"/>
</g>
<defs>
<clipPath id="clip0_30_394">
<rect width="44" height="44" fill="white"/>
</clipPath>
</defs>
</svg>
