<svg width="37" height="37" viewBox="0 0 37 37" fill="none" xmlns="http://www.w3.org/2000/svg">
<g opacity="0.5">
<path d="M7.70825 28.5208H10.7916M13.8749 28.5208H23.1249M26.2082 28.5208H29.2916M6.552 22.9616C9.15896 23.3932 13.6298 23.8958 18.4999 23.8958C23.3716 23.8958 27.8409 23.3932 30.4478 22.9616M6.552 22.9616C7.81961 20.4062 8.47916 17.5923 8.47908 14.7399V14.6458H28.5207V14.7383C28.5207 17.6135 29.1898 20.424 30.4478 22.9616M6.552 22.9616C5.87053 24.3337 5.02125 25.6159 4.02366 26.7787L3.85254 26.9791V36.2291H7.32129L7.43691 36.0441C7.99124 35.1572 8.76205 34.4259 9.67684 33.9188C10.5916 33.4118 11.6203 33.1458 12.6662 33.1458H24.3305C25.3764 33.1458 26.4051 33.4118 27.3199 33.9188C28.2347 34.4259 29.0055 35.1572 29.5598 36.0441L29.6755 36.2291H33.1442V26.9791L32.9731 26.7787C31.9764 25.6156 31.1292 24.3334 30.4478 22.9616M13.1041 5.39581H14.6457M23.1249 7.70831V5.39581M20.0416 7.70831V5.39581M17.8832 7.70831C17.3742 8.59003 16.5884 9.27914 15.6478 9.66876C14.7072 10.0584 13.6643 10.1267 12.6808 9.86322C11.6974 9.59971 10.8284 9.01907 10.2086 8.21134C9.58883 7.40361 9.25288 6.41394 9.25288 5.39581C9.25288 4.37769 9.58883 3.38802 10.2086 2.58029C10.8284 1.77256 11.6974 1.19192 12.6808 0.928408C13.6643 0.664899 14.7072 0.733254 15.6478 1.12287C16.5884 1.51249 17.3742 2.2016 17.8832 3.08331H25.3033C25.8382 3.84181 26.5597 4.44769 27.4 4.8439L27.7499 5.0104V5.78123L27.3969 5.94773C26.5577 6.34375 25.8354 6.95029 25.3002 7.70831H17.8832Z" stroke="white" stroke-width="1.2"/>
</g>
</svg>
