<svg width="40" height="40" viewBox="0 0 40 40" fill="none" xmlns="http://www.w3.org/2000/svg">
<g opacity="0.5">
<path d="M39.6875 10C39.5 9.875 39.25 9.8125 39.0625 9.9375L26.3125 14.5L17.375 11.25C17.875 10 18.125 8.875 18.125 7.9375C18.125 6.25 17.5 4.75 16.3125 3.5625C15.125 2.375 13.5625 1.75 11.9375 1.75C8.5 1.75 5.75 4.5 5.75 7.9375C5.75 9.125 6.1875 10.5625 6.9375 12.3125L0.4375 14.5C0.1875 14.625 0 14.875 0 15.125V37.625C0 37.875 0.125 38.0625 0.3125 38.1875C0.4375 38.25 0.5625 38.3125 0.6875 38.3125C0.75 38.3125 0.875 38.3125 0.9375 38.25L13.6875 33.75L26.0625 38.3125C26.1875 38.375 26.375 38.375 26.5 38.3125L39.5 33.6875C39.75 33.5625 39.9375 33.3125 39.9375 33.0625V10.5625C40 10.3125 39.875 10.125 39.6875 10ZM11.9375 3C13.25 3 14.4375 3.5 15.3125 4.4375C16.25 5.3125 16.75 6.5625 16.75 7.8125C16.75 8.6875 16.4375 9.875 15.8125 11.25C14.6875 13.75 12.8125 16.375 11.9375 17.5625C11.8125 17.4375 11.75 17.3125 11.625 17.125C10.8125 16 9.5 14.125 8.5625 12.1875C7.625 10.375 7.1875 8.875 7.1875 7.75C7.125 5.1875 9.3125 3 11.9375 3ZM38.625 32.5625L26.3125 36.9375L13.9375 32.375C13.875 32.375 13.75 32.3125 13.6875 32.3125C13.625 32.3125 13.5 32.3125 13.4375 32.375L1.375 36.6875V15.625L7.625 13.4375C7.625 13.4375 7.625 13.4375 7.625 13.5C7.6875 13.5625 7.6875 13.625 7.75 13.6875C7.8125 13.8125 7.875 13.9375 7.9375 14.0625C8 14.125 8 14.1875 8.0625 14.25C8.125 14.375 8.1875 14.5 8.25 14.625C8.3125 14.6875 8.3125 14.75 8.375 14.8125C8.4375 14.9375 8.5 15.0625 8.5625 15.125C8.625 15.1875 8.625 15.25 8.6875 15.3125C8.75 15.4375 8.8125 15.5 8.875 15.625C8.9375 15.6875 8.9375 15.75 9 15.8125C9.0625 15.9375 9.125 16 9.1875 16.125C9.25 16.1875 9.25 16.25 9.3125 16.3125C9.375 16.4375 9.4375 16.5 9.5 16.625C9.5625 16.6875 9.5625 16.75 9.625 16.8125C9.6875 16.9375 9.75 17 9.8125 17.125C9.875 17.1875 9.875 17.25 9.9375 17.25C10 17.375 10.0625 17.4375 10.125 17.5C10.125 17.5625 10.1875 17.5625 10.1875 17.625C10.25 17.75 10.3125 17.8125 10.375 17.875L10.4375 17.9375C10.5 18 10.5625 18.125 10.625 18.1875L10.6875 18.25C10.75 18.3125 10.8125 18.4375 10.875 18.5C10.9375 18.5625 11 18.625 11.0625 18.6875C11.1875 18.875 11.3125 19 11.3125 19.0625C11.4375 19.25 11.625 19.3125 11.875 19.3125C12.0625 19.3125 12.25 19.1875 12.4375 19.0625C12.4375 19.0625 12.5 19 12.625 18.875L12.6875 18.8125C12.75 18.75 12.75 18.75 12.8125 18.6875L12.875 18.625C12.9375 18.5625 12.9375 18.5 13 18.4375C13 18.375 13.0625 18.375 13.0625 18.3125C13.125 18.25 13.1875 18.1875 13.1875 18.125C13.25 18.0625 13.25 18 13.3125 17.9375C13.375 17.875 13.4375 17.8125 13.5 17.6875C13.5625 17.625 13.5625 17.5625 13.625 17.5C13.6875 17.4375 13.75 17.375 13.8125 17.25C13.875 17.1875 13.9375 17.125 13.9375 17.0625C14 17 14.0625 16.875 14.125 16.8125C14.1875 16.75 14.25 16.625 14.3125 16.5625C14.375 16.5 14.4375 16.375 14.5 16.3125C14.5625 16.25 14.625 16.125 14.6875 16.0625C14.75 15.9375 14.8125 15.875 14.875 15.75C14.9375 15.6875 15 15.5625 15.0625 15.5C15.125 15.375 15.1875 15.3125 15.25 15.1875C15.3125 15.0625 15.375 15 15.4375 14.875C15.5 14.75 15.5625 14.6875 15.625 14.5625C15.6875 14.4375 15.75 14.375 15.8125 14.25C15.875 14.125 15.9375 14.0625 16 13.9375C16.0625 13.8125 16.125 13.75 16.1875 13.625C16.25 13.5 16.3125 13.4375 16.375 13.3125C16.4375 13.1875 16.5 13.125 16.5625 13C16.625 12.875 16.6875 12.75 16.75 12.6875C16.8125 12.5625 16.875 12.5 16.875 12.375C16.875 12.375 16.875 12.375 16.875 12.3125L26.125 15.6875C26.25 15.75 26.4375 15.75 26.5625 15.6875L38.625 11.375V32.5625Z" fill="white"/>
<path d="M32.8127 26.5C32.9377 26.5625 33.1252 26.5625 33.2502 26.5625C33.6252 26.5625 34.0002 26.4375 34.3127 26.25C34.7502 25.9375 35.0627 25.5 35.1877 25C35.3127 24.5 35.1877 23.9375 34.9377 23.5C34.6252 23.0625 34.1877 22.75 33.6877 22.625C32.6252 22.375 31.5002 23.0625 31.2502 24.125C31.1252 24.625 31.2502 25.1875 31.5002 25.625C31.8752 26.0625 32.3127 26.375 32.8127 26.5ZM32.6252 24.375C32.6877 24 33.0627 23.8125 33.3752 23.875C33.5627 23.9375 33.6877 24 33.7502 24.1875C33.8127 24.3125 33.8752 24.5 33.8127 24.6875C33.7502 24.875 33.6877 25 33.5002 25.0625C33.3752 25.125 33.1877 25.1875 33.0002 25.125C32.8127 25.0625 32.6877 25 32.6252 24.8125C32.6252 24.6875 32.6252 24.5625 32.6252 24.375Z" fill="white"/>
<path d="M6.87518 24.4375L6.43768 24.6875L6.18768 24.25C6.00018 23.9375 5.56268 23.8125 5.25018 24.0625C4.93768 24.25 4.81268 24.6875 5.06268 25L5.31268 25.4375L4.87518 25.6875C4.56268 25.875 4.43768 26.3125 4.68768 26.625C4.75018 26.875 5.00018 26.9375 5.18768 26.9375C5.31268 26.9375 5.43768 26.875 5.56268 26.8125L6.00018 26.5625L6.25018 27C6.37518 27.1875 6.62518 27.3125 6.81268 27.3125C6.93768 27.3125 7.06268 27.25 7.18768 27.1875C7.50018 27 7.62518 26.5625 7.37518 26.25L7.12518 25.8125L7.56268 25.5625C7.87518 25.375 8.00018 24.9375 7.75018 24.625C7.62518 24.3125 7.18768 24.25 6.87518 24.4375Z" fill="white"/>
<path d="M13.3123 26.3125C12.4998 26.3125 11.4373 26.1875 10.7498 26C10.3748 25.9375 9.99981 26.1875 9.93731 26.5625C9.87481 26.9375 10.1248 27.3125 10.4998 27.375C11.1873 27.5 12.3123 27.6875 13.3123 27.6875C13.6873 27.6875 13.9998 27.375 13.9998 27C13.9998 26.625 13.6873 26.3125 13.3123 26.3125Z" fill="white"/>
<path d="M18.4375 23.9375C18 24.5625 17.5 25.0625 16.875 25.4375C16.6875 25.5625 16.4375 25.6875 16.1875 25.8125C15.8125 25.9375 15.6875 26.375 15.8125 26.75C15.9375 27 16.1875 27.1875 16.4375 27.1875C16.5 27.1875 16.625 27.1875 16.6875 27.125C17 27 17.25 26.875 17.5 26.6875C18.25 26.1875 18.875 25.625 19.4375 24.875C19.6875 24.5625 19.625 24.125 19.3125 23.9375C19.125 23.5625 18.6875 23.625 18.4375 23.9375Z" fill="white"/>
<path d="M23.4375 19.4375C22.75 19.4375 22.375 19.625 22 19.75C21.125 20.125 20.375 20.9375 20.1875 21.1875C19.9375 21.5 20 21.9375 20.25 22.1875C20.375 22.3125 20.5625 22.375 20.6875 22.375C20.875 22.375 21.0625 22.3125 21.1875 22.125C21.5 21.75 22 21.3125 22.5 21.0625C22.875 20.9375 23 20.875 23.4375 20.8125C23.8125 20.8125 24.125 20.5 24.125 20.125C24.125 19.75 23.8125 19.4375 23.4375 19.4375Z" fill="white"/>
<path d="M26 20.5C25.875 20.875 26 21.25 26.375 21.4375C27.0625 21.75 28.0625 22.25 28.8125 22.8125C28.9375 22.875 29.0625 22.9375 29.1875 22.9375C29.4375 22.9375 29.625 22.8125 29.75 22.625C29.9375 22.3125 29.875 21.875 29.5625 21.6875C28.6875 21.125 27.6875 20.5625 26.875 20.25C26.5625 20 26.1875 20.1875 26 20.5Z" fill="white"/>
<path d="M11.9375 9.5C13.125 9.5 14.0625 8.5625 14.0625 7.375C14.0625 6.1875 13.125 5.25 11.9375 5.25C10.75 5.25 9.8125 6.1875 9.8125 7.375C9.8125 8.5625 10.8125 9.5 11.9375 9.5ZM11.9375 6.625C12.3125 6.625 12.6875 6.9375 12.6875 7.375C12.6875 7.75 12.375 8.125 11.9375 8.125C11.5625 8.125 11.1875 7.8125 11.1875 7.375C11.25 7 11.5625 6.625 11.9375 6.625Z" fill="white"/>
</g>
</svg>
