<svg width="15" height="22" viewBox="0 0 15 22" fill="none" xmlns="http://www.w3.org/2000/svg">
<path d="M7.5 21.1161L7.09822 20.625C6.83036 20.2679 0 12.2768 0 7.50001C0 3.34822 3.39286 0 7.5 0C11.6071 0 15 3.39287 15 7.50001C15 12.2768 8.16964 20.3125 7.90178 20.625L7.5 21.1161ZM7.5 1.02679C3.92857 1.02679 1.07143 3.92858 1.07143 7.45536C1.07143 11.2054 6.02679 17.5893 7.5 19.4196C8.97321 17.5893 13.9286 11.25 13.9286 7.45536C13.9286 3.92858 11.0714 1.02679 7.5 1.02679Z" fill="#E52421"/>
<path d="M7.49972 10.357C5.93722 10.357 4.64258 9.06235 4.64258 7.49985C4.64258 5.93735 5.93722 4.6427 7.49972 4.6427C9.06222 4.6427 10.3569 5.93735 10.3569 7.49985C10.3569 9.06235 9.06222 10.357 7.49972 10.357ZM7.49972 5.71414C6.51758 5.71414 5.714 6.51771 5.714 7.49985C5.714 8.482 6.51758 9.28557 7.49972 9.28557C8.48186 9.28557 9.28543 8.482 9.28543 7.49985C9.28543 6.51771 8.48186 5.71414 7.49972 5.71414Z" fill="#E52421"/>
</svg>
