<svg width="202" height="46" viewBox="0 0 202 46" fill="none" xmlns="http://www.w3.org/2000/svg">
<path d="M32.1553 20.076C32.1553 28.1108 27.2896 35.4309 16.9343 35.4309C7.50302 35.4309 2 28.7427 2 20.2709C2 11.9261 7.31419 5.09912 17.2682 5.09912C26.4601 5.09912 32.1553 11.4625 32.1553 20.076ZM4.77511 20.1587C4.77511 26.9503 9.03725 33.3492 17.0793 33.3492C25.7419 33.3492 29.3802 27.1127 29.3802 20.1174C29.3802 13.2343 25.2664 7.20746 17.1738 7.20746C8.55843 7.20746 4.77511 13.4853 4.77511 20.144V20.1587Z" fill="white" stroke="white" stroke-width="3" stroke-miterlimit="10"/>
<path d="M38.7542 19.2613C38.7542 17.4098 38.7542 15.6381 38.707 13.9461H41.0674C41.1618 14.6223 41.209 17.3596 41.1618 17.9502C42.2139 15.8005 44.1763 13.4412 49.1095 13.4412C53.3682 13.4412 57.1482 15.5495 57.1482 21.3637V35.0177H54.7575V21.7062C54.7575 17.9561 52.9838 15.5052 48.8195 15.5052C43.1243 15.5052 41.1618 19.6776 41.1618 24.2723V35.0177H38.7542V19.2613Z" fill="white" stroke="white" stroke-width="3" stroke-miterlimit="10"/>
<path d="M64.9941 35.0257V3.96753H67.3848V35.0257H64.9941Z" fill="white" stroke="white" stroke-width="3" stroke-miterlimit="10"/>
<path d="M75.0927 13.9518C79.9247 26.0054 82.0321 30.978 82.8481 33.2547H82.8987C83.853 30.6827 85.7682 25.7957 90.4114 13.9518H92.8999L83.9036 36.2459C81.3645 42.4823 79.6414 43.8731 75.3354 43.8731C74.599 43.8764 73.8632 43.8339 73.1336 43.7462V41.6349C73.8466 41.7197 74.5653 41.7621 75.2849 41.7618C78.7344 41.7618 79.8336 40.2854 81.6039 35.9447L72.4727 13.9518H75.0927Z" fill="white" stroke="white" stroke-width="3" stroke-miterlimit="10"/>
<path d="M130.643 27.2543V28.9936C127.129 31.9447 123.413 34.7058 119.516 37.2616C116.457 39.2688 113.136 40.9491 109.622 42.2667C106.673 43.3775 103.502 43.9666 100.292 44C97.6959 44 95.4659 43.6161 93.6023 42.8484C91.8253 42.1489 90.349 40.9719 89.3874 39.488C88.3987 37.8828 87.9069 36.0788 87.9611 34.2556C87.9934 32.5442 88.3431 30.8488 88.9963 29.2357C89.7432 27.3464 90.7415 25.5406 91.9703 23.8556C93.4024 21.8845 94.9995 20.0093 96.7483 18.2451C98.8456 16.1219 101.065 14.0936 103.398 12.1681C105.848 10.1115 108.462 8.20997 111.221 6.47797C113.436 5.0668 115.772 3.80619 118.207 2.70717C120.073 1.87341 122.022 1.19234 124.031 0.672647C125.473 0.275835 126.971 0.0503889 128.482 0.00234686C129.551 -0.0256079 130.609 0.196604 131.547 0.646071C132.401 1.08183 133.085 1.73471 133.506 2.51819C133.975 3.40666 134.206 4.37732 134.18 5.35589C134.18 7.37368 133.255 9.61785 131.405 12.0884C129.42 14.7006 127.097 17.1034 124.483 19.2491C122.038 21.3253 119.391 23.2104 116.572 24.8832C114.061 26.3379 112.253 27.0653 111.147 27.0653C110.39 27.0619 109.658 26.8304 109.073 26.4098C108.792 26.2467 108.559 26.0281 108.393 25.7716C108.227 25.5151 108.131 25.228 108.115 24.9334C108.115 23.9176 108.842 22.6862 110.297 21.2393C111.748 19.7961 113.34 18.4662 115.055 17.2648C116.774 16.06 117.803 15.4576 118.14 15.4576C118.305 15.4576 118.389 15.5108 118.389 15.6171C118.327 15.9123 118.192 16.1922 117.995 16.438C117.826 16.6599 117.698 16.9041 117.617 17.1614C117.617 17.3032 117.688 17.377 117.833 17.377C118.24 17.377 119.418 16.565 121.367 14.9409C123.332 13.2969 125.124 11.5001 126.718 9.57257C128.339 7.61778 129.15 6.01634 129.153 4.76827C129.182 4.33819 129.02 3.91483 128.701 3.58712C128.521 3.44082 128.308 3.3286 128.076 3.25748C127.844 3.18636 127.597 3.15785 127.352 3.17372C125.671 3.17372 123.118 4.18655 119.694 6.21222C115.915 8.4953 112.391 11.0856 109.167 13.9487C105.761 16.8757 102.744 20.1308 100.174 23.6518C97.7712 26.9984 96.5685 29.9335 96.5663 32.4573C96.5179 33.7243 96.8211 34.9827 97.4497 36.1247C98.0281 37.0988 98.9345 37.8936 100.046 38.4014C101.325 38.9592 102.742 39.2311 104.17 39.1927C107.657 39.1927 111.61 38.1848 116.029 36.169C120.449 34.1532 125.32 31.1816 130.643 27.2543Z" fill="#E52421"/>
<path d="M134.538 22.5652C138.188 20.1025 141.733 18.2737 145.173 17.0788C148.612 15.8839 151.267 15.2854 153.137 15.2834C153.655 15.2874 154.154 15.454 154.543 15.753C154.963 16.0499 155.313 16.416 155.572 16.8307C155.772 17.1062 155.901 17.4166 155.95 17.7402C155.955 17.8894 155.91 18.0367 155.82 18.1634C155.73 18.2901 155.599 18.3905 155.444 18.4519C154.874 18.6774 154.284 18.8612 153.68 19.0011C153.845 19.2964 154.065 19.6507 154.328 20.0966C154.591 20.5425 154.796 20.9057 154.941 21.1803C155.072 21.4101 155.146 21.6618 155.157 21.9185C155.157 22.3477 154.574 23.1459 153.407 24.3133C152.24 25.4807 151.423 26.3419 150.956 26.8971C150.472 27.4911 150.225 28.2083 150.254 28.9375C150.254 30.2564 151.071 30.9169 152.706 30.9189C154.389 30.9189 157.021 29.7495 160.599 27.4109V29.0438C154.53 34.0617 150.18 36.5697 147.55 36.5677C146.613 36.5677 145.948 36.3403 145.55 35.8826C145.153 35.4249 144.97 34.7546 144.97 33.8629C144.97 32.4534 145.656 30.41 147.027 27.7327C143.516 30.6226 140.908 32.6788 139.204 33.9012C137.5 35.1237 136.089 35.733 134.969 35.7291C134.441 35.7291 133.78 35.3895 132.987 34.7103C132.12 33.9414 131.407 33.0499 130.879 32.0734C130.276 31.0319 129.961 29.8809 129.959 28.7131C129.942 28.002 130.056 27.2931 130.296 26.6136C130.572 25.9655 131.003 25.3765 131.56 24.8862C132.492 24.0551 133.487 23.2797 134.538 22.5652ZM151.805 19.6123C145.554 21.7345 141.102 23.5367 138.449 25.019C135.797 26.5014 134.468 28.028 134.463 29.5989C134.437 30.0906 134.573 30.5786 134.855 31.0045C134.962 31.173 135.119 31.3131 135.309 31.4098C135.5 31.5065 135.717 31.5562 135.937 31.5537C136.426 31.4983 136.902 31.3715 137.343 31.1787C139.891 30.0636 142.228 28.6104 144.269 26.8705C146.36 25.0988 148.872 22.6823 151.805 19.6212V19.6123Z" fill="#E52421"/>
<path d="M159.914 29.4254V27.6862C160.978 26.7766 161.966 25.8017 162.871 24.7688C162.254 24.6428 161.677 24.3954 161.185 24.0453C161 23.8754 160.858 23.6732 160.768 23.4519C160.678 23.2306 160.642 22.9951 160.663 22.7608C160.663 22.1171 161.022 21.3051 161.742 20.3247C162.494 19.3097 163.392 18.3829 164.412 17.5668C165.467 16.7104 166.428 16.1573 167.295 15.9072C167.601 15.7879 167.931 15.7236 168.266 15.7183C168.749 15.7183 168.988 15.8895 168.988 16.2291C168.988 16.5687 168.617 17.1474 167.872 18.0746C172.817 17.5057 175.941 17.2203 177.243 17.2183C177.596 17.2007 177.951 17.2366 178.291 17.3246C178.699 17.487 179.033 17.862 179.303 18.4497C179.56 19.0133 179.694 19.6143 179.697 20.2214C179.649 20.6862 179.41 21.1197 179.023 21.4409C178.298 22.113 177.534 22.7517 176.733 23.3544C175.499 24.3306 174.42 25.4468 173.523 26.6734C172.66 27.8703 172.227 28.7719 172.225 29.3782C172.225 30.2168 172.922 30.6361 174.316 30.6361C175.781 30.6361 178.329 29.5298 181.96 27.3171V29.1095C179.964 30.6627 178.317 31.8852 177.02 32.7769C175.888 33.5726 174.682 34.2847 173.415 34.906C172.52 35.3776 171.505 35.6484 170.462 35.6944C169.979 35.7011 169.501 35.6119 169.063 35.4333C168.626 35.2548 168.24 34.9917 167.936 34.6638C167.262 33.9788 166.924 32.9846 166.924 31.6814C166.967 30.7662 167.237 29.8702 167.717 29.0563C168.359 27.9201 169.139 26.8479 170.043 25.8584C171.115 24.6551 172.264 23.5065 173.486 22.4183C172.812 22.5246 172.056 22.6368 171.213 22.752C170.37 22.8671 169.484 22.9882 168.546 23.1152L166.381 23.4105C164.907 25.6192 162.751 27.6242 159.914 29.4254Z" fill="#E52421"/>
<path d="M194.818 32.0727C194.474 31.3748 193.967 30.7473 193.331 30.2301C192.676 29.6847 191.923 29.2377 191.102 28.9072C190.275 28.5731 189.408 28.3234 188.516 28.1631C185.807 27.7005 183.255 26.7049 181.05 25.2516C180.777 25.0446 180.56 24.7862 180.416 24.4957C180.204 24.1535 180.088 23.7718 180.079 23.3824C180.083 22.0589 180.279 20.7412 180.662 19.461C180.947 18.3641 181.454 17.3209 182.16 16.3812C183.137 15.1528 184.898 14.0789 187.44 13.1596C190.171 12.2097 193.09 11.7411 196.028 11.7806C197.93 11.7806 199.399 11.944 200.436 12.2708C201.472 12.5976 201.991 13.1015 201.993 13.7827C202.033 14.6563 201.895 15.5292 201.585 16.3605C201.423 16.8246 201.123 17.2426 200.715 17.5712C200.194 17.8773 199.648 18.1487 199.08 18.3832C198.323 18.6718 197.593 19.0135 196.898 19.4049C196.351 19.7179 195.825 20.0591 195.324 20.4266C194.889 20.7544 194.619 20.9168 194.511 20.9168C194.403 20.9168 194.315 20.8577 194.315 20.7396C194.315 20.4857 194.548 20.1047 195.017 19.5939C195.507 19.0665 196.093 18.6127 196.75 18.2503C197.478 17.8192 197.843 17.5446 197.843 17.4265C197.843 17.2346 197.438 17.1312 196.632 17.1312C194.347 17.1137 192.069 17.361 189.858 17.8665C187.79 18.3606 186.158 19.0063 184.962 19.8036C183.766 20.6008 183.168 21.4158 183.168 22.2485C183.15 22.4762 183.211 22.7033 183.344 22.8999C183.476 23.0964 183.674 23.2533 183.91 23.3499C184.98 23.7589 186.074 24.1187 187.187 24.4277C188.756 24.8848 190.276 25.4649 191.726 26.1611C193.641 27.0804 195.061 28.0361 195.985 29.0283C196.884 29.9603 197.376 31.1418 197.374 32.3621C197.368 33.2324 197.183 34.0947 196.828 34.9074C196.46 35.7661 195.92 36.5602 195.233 37.252C194.548 37.9587 193.73 38.5579 192.815 39.0237C191.874 39.4511 190.89 39.8001 189.875 40.0661C188.618 40.4076 187.332 40.6643 186.031 40.8338C184.723 41.0143 183.402 41.107 182.079 41.1114C179.766 41.1114 177.906 40.8673 176.501 40.3791C175.096 39.8909 174.393 39.1497 174.391 38.1556C174.391 37.7127 174.628 37.0237 175.102 36.0886C175.578 35.1496 176.141 34.5147 176.788 34.1899C177.298 33.9538 177.856 33.8064 178.43 33.7558C178.96 33.7204 179.223 33.7883 179.223 33.9684C179.222 34.0172 179.201 34.0642 179.165 34.1013C179.126 34.1438 179.079 34.1806 179.027 34.2106L178.869 34.2992C178.602 34.4202 178.39 34.5118 178.225 34.5944C178.084 34.6481 177.951 34.7144 177.827 34.7923C177.779 34.825 177.74 34.8672 177.714 34.9154C177.688 34.9637 177.676 35.0166 177.678 35.0699C177.678 35.3829 179.045 35.5384 181.779 35.5364C183.733 35.5562 185.687 35.4575 187.626 35.2411C189.02 35.0786 190.378 34.7259 191.648 34.1958C192.842 33.6611 193.916 32.9419 194.818 32.0727Z" fill="#E52421"/>
</svg>
