<svg width="40" height="49" viewBox="0 0 40 49" fill="none" xmlns="http://www.w3.org/2000/svg">
<g opacity="0.5">
<path d="M20.3125 29.0313C22.8867 29.0313 25.4032 28.2679 27.5436 26.8377C29.684 25.4076 31.3522 23.3748 32.3374 20.9965C33.3225 18.6182 33.5802 16.0012 33.078 13.4764C32.5758 10.9516 31.3362 8.63246 29.5159 6.81219C27.6957 4.99193 25.3765 3.75231 22.8517 3.2501C20.3269 2.74789 17.7099 3.00564 15.3316 3.99076C12.9533 4.97588 10.9206 6.64413 9.4904 8.78454C8.06023 10.9249 7.29688 13.4414 7.29688 16.0156C7.30073 19.4664 8.67325 22.7747 11.1133 25.2148C13.5534 27.6549 16.8617 29.0274 20.3125 29.0313ZM13.4219 25.1825C13.4257 23.8499 13.8158 22.547 14.545 21.4316C15.2742 20.3163 16.3111 19.4363 17.5302 18.8982C18.3275 19.5114 19.3052 19.8438 20.311 19.8438C21.3168 19.8438 22.2944 19.5114 23.0917 18.8982C24.3114 19.4358 25.349 20.3156 26.0787 21.431C26.8085 22.5464 27.1991 23.8496 27.2031 25.1825C25.2209 26.6868 22.8009 27.5012 20.3125 27.5012C17.8241 27.5012 15.4041 26.6868 13.4219 25.1825ZM23.375 15.25C23.375 16.0622 23.0523 16.8412 22.478 17.4155C21.9037 17.9899 21.1247 18.3125 20.3125 18.3125C19.5003 18.3125 18.7213 17.9899 18.147 17.4155C17.5727 16.8412 17.25 16.0622 17.25 15.25V12.1875C17.25 11.3753 17.5727 10.5963 18.147 10.022C18.7213 9.44766 19.5003 9.12501 20.3125 9.12501C21.1247 9.12501 21.9037 9.44766 22.478 10.022C23.0523 10.5963 23.375 11.3753 23.375 12.1875V15.25ZM20.3125 4.53126C22.5583 4.52814 24.7556 5.18449 26.6318 6.41887C28.508 7.65325 29.9804 9.41133 30.8664 11.475C31.7525 13.5386 32.0131 15.817 31.616 18.0274C31.2189 20.2379 30.1815 22.283 28.6325 23.9092C28.4291 22.6002 27.9196 21.3576 27.1457 20.2824C26.3717 19.2072 25.355 18.3298 24.1781 17.7214C24.6534 16.9848 24.9062 16.1267 24.9062 15.25V12.1875C24.9062 10.9692 24.4223 9.80073 23.5608 8.93923C22.6993 8.07774 21.5308 7.59376 20.3125 7.59376C19.0942 7.59376 17.9257 8.07774 17.0642 8.93923C16.2027 9.80073 15.7188 10.9692 15.7188 12.1875V15.25C15.7188 16.1267 15.9716 16.9848 16.4469 17.7214C15.27 18.3298 14.2533 19.2072 13.4793 20.2824C12.7054 21.3576 12.1959 22.6002 11.9925 23.9092C10.4435 22.283 9.40613 20.2379 9.00901 18.0274C8.61189 15.817 8.87252 13.5386 9.75856 11.475C10.6446 9.41133 12.117 7.65325 13.9932 6.41887C15.8694 5.18449 18.0667 4.52814 20.3125 4.53126Z" fill="white"/>
<path d="M30.2656 30.5625H10.3594C10.1563 30.5625 9.96158 30.6432 9.818 30.7867C9.67441 30.9303 9.59375 31.1251 9.59375 31.3281V35.9219C9.59375 36.1249 9.67441 36.3197 9.818 36.4633C9.96158 36.6068 10.1563 36.6875 10.3594 36.6875H30.2656C30.4687 36.6875 30.6634 36.6068 30.807 36.4633C30.9506 36.3197 31.0312 36.1249 31.0312 35.9219V31.3281C31.0312 31.1251 30.9506 30.9303 30.807 30.7867C30.6634 30.6432 30.4687 30.5625 30.2656 30.5625ZM29.5 35.1562H11.125V32.0938H29.5V35.1562Z" fill="white"/>
<path d="M14.9531 38.2188H10.3594C10.1563 38.2188 9.96158 38.2994 9.818 38.443C9.67441 38.5866 9.59375 38.7813 9.59375 38.9844V43.5781C9.59375 43.7812 9.67441 43.9759 9.818 44.1195C9.96158 44.2631 10.1563 44.3438 10.3594 44.3438H14.9531C15.1562 44.3438 15.3509 44.2631 15.4945 44.1195C15.6381 43.9759 15.7188 43.7812 15.7188 43.5781V38.9844C15.7188 38.7813 15.6381 38.5866 15.4945 38.443C15.3509 38.2994 15.1562 38.2188 14.9531 38.2188ZM14.1875 42.8125H11.125V39.75H14.1875V42.8125Z" fill="white"/>
<path d="M30.2656 38.2188H18.0156C17.8126 38.2188 17.6178 38.2994 17.4742 38.443C17.3307 38.5866 17.25 38.7813 17.25 38.9844V43.5781C17.25 43.7812 17.3307 43.9759 17.4742 44.1195C17.6178 44.2631 17.8126 44.3438 18.0156 44.3438H27.2031C27.4062 44.3438 27.6009 44.2631 27.7445 44.1195C27.8881 43.9759 27.9688 43.7812 27.9688 43.5781C27.9688 43.3751 27.8881 43.1803 27.7445 43.0367C27.6009 42.8932 27.4062 42.8125 27.2031 42.8125H18.7812V39.75H29.5V43.5781C29.5 43.7812 29.5807 43.9759 29.7242 44.1195C29.8678 44.2631 30.0626 44.3438 30.2656 44.3438C30.4687 44.3438 30.6634 44.2631 30.807 44.1195C30.9506 43.9759 31.0312 43.7812 31.0312 43.5781V38.9844C31.0312 38.7813 30.9506 38.5866 30.807 38.443C30.6634 38.2994 30.4687 38.2188 30.2656 38.2188Z" fill="white"/>
<rect x="0.6" y="0.6" width="38.8" height="47.8" stroke="#FFFEFE" stroke-width="1.2"/>
</g>
</svg>
