<svg width="50" height="50" viewBox="0 0 50 50" fill="none" xmlns="http://www.w3.org/2000/svg">
<g opacity="0.5">
<path d="M25 50C11.2156 50 0 38.7844 0 25C0 11.2156 11.2156 0 25 0C38.7844 0 50 11.2156 50 25C50 38.7844 38.7844 50 25 50ZM25 2.08333C12.3635 2.08333 2.08333 12.3635 2.08333 25C2.08333 37.6365 12.3635 47.9167 25 47.9167C37.6365 47.9167 47.9167 37.6365 47.9167 25C47.9167 12.3635 37.6365 2.08333 25 2.08333Z" fill="white"/>
<path d="M24.9997 43.7501C15.8101 43.7501 8.33301 36.273 8.33301 27.0834C8.33301 26.5074 8.79967 26.0417 9.37467 26.0417C9.94967 26.0417 10.4163 26.5074 10.4163 27.0834C10.4163 35.1251 16.958 41.6667 24.9997 41.6667C33.0413 41.6667 39.583 35.1251 39.583 27.0834C39.583 26.5074 40.0497 26.0417 40.6247 26.0417C41.1997 26.0417 41.6663 26.5074 41.6663 27.0834C41.6663 36.273 34.1893 43.7501 24.9997 43.7501Z" fill="white"/>
<path d="M19.792 21.875C19.217 21.875 18.7503 21.4094 18.7503 20.8333C18.7503 19.1104 17.3482 17.7083 15.6253 17.7083C13.9024 17.7083 12.5003 19.1104 12.5003 20.8333C12.5003 21.4094 12.0337 21.875 11.4587 21.875C10.8837 21.875 10.417 21.4094 10.417 20.8333C10.417 17.9615 12.7535 15.625 15.6253 15.625C18.4972 15.625 20.8337 17.9615 20.8337 20.8333C20.8337 21.4094 20.367 21.875 19.792 21.875Z" fill="white"/>
<path d="M38.542 21.875C37.967 21.875 37.5003 21.4094 37.5003 20.8333C37.5003 19.1104 36.0982 17.7083 34.3753 17.7083C32.6524 17.7083 31.2503 19.1104 31.2503 20.8333C31.2503 21.4094 30.7837 21.875 30.2087 21.875C29.6337 21.875 29.167 21.4094 29.167 20.8333C29.167 17.9615 31.5035 15.625 34.3753 15.625C37.2472 15.625 39.5837 17.9615 39.5837 20.8333C39.5837 21.4094 39.117 21.875 38.542 21.875Z" fill="white"/>
</g>
</svg>
