<svg width="31" height="31" viewBox="0 0 31 31" fill="none" xmlns="http://www.w3.org/2000/svg">
<g opacity="0.5" clip-path="url(#clip0_30_411)">
<path d="M15.5001 0.619995C7.29566 0.619995 0.620117 7.29491 0.620117 15.5C0.620117 23.7051 7.29566 30.38 15.5001 30.38C23.7046 30.38 30.3801 23.7051 30.3801 15.5C30.3801 7.29491 23.7046 0.619995 15.5001 0.619995ZM15.5001 27.28C9.005 27.28 3.72012 21.9957 3.72012 15.5C3.72012 9.00425 9.005 3.71999 15.5001 3.71999C21.9952 3.71999 27.2795 9.00425 27.2795 15.5C27.2795 21.9957 21.9952 27.28 15.5001 27.28Z" stroke="white" stroke-width="1.2" stroke-miterlimit="10" stroke-linecap="round" stroke-linejoin="round"/>
<path d="M26.935 13.64C21.975 13.64 19.5936 10.54 15.4997 10.54C11.3997 10.54 9.33445 13.64 4.06445 13.64M17.9797 26.04C17.9797 26.04 17.9797 22.1929 17.9797 21.08C17.9797 19.416 19.3809 17.98 21.0797 17.98C21.8492 17.98 26.6945 17.98 26.6945 17.98M4.06445 17.98C4.06445 17.98 9.23587 17.98 9.91973 17.98C11.7084 17.98 13.0197 19.3626 13.0197 21.08C13.0197 22.2314 13.0197 26.04 13.0197 26.04" stroke="white" stroke-width="1.2" stroke-miterlimit="10" stroke-linecap="round" stroke-linejoin="round"/>
<path d="M15.4995 17.98C16.8692 17.98 17.9795 16.8697 17.9795 15.5C17.9795 14.1304 16.8692 13.02 15.4995 13.02C14.1299 13.02 13.0195 14.1304 13.0195 15.5C13.0195 16.8697 14.1299 17.98 15.4995 17.98Z" stroke="white" stroke-width="1.2" stroke-miterlimit="10" stroke-linecap="round" stroke-linejoin="round"/>
</g>
<defs>
<clipPath id="clip0_30_411">
<rect width="31" height="31" fill="white"/>
</clipPath>
</defs>
</svg>
